<svg version="1.1" id="Layer_1" xmlns="http://www.w3.org/2000/svg" x="0" y="0" viewBox="0 0 846.2 198.6" xml:space="preserve"><style>.st0{fill:#00aeef}.st1{fill:#21409a}</style><path class="st0" d="M342 171.4c3.9 0 6.9-.9 9-2.7 2.1-1.8 3.1-4.4 3.1-7.7 0-3.2-1.1-5.7-3.2-7.7-2.1-1.9-5.1-2.9-8.9-2.9h-12.7v34.5h4.5v-13.5h8.2zm-8.1-17.2h8.4c2.3 0 4 .7 5.3 1.9 1.3 1.2 1.9 2.9 1.9 4.9 0 2.2-.6 3.8-1.9 5-1.3 1.1-3.2 1.7-5.6 1.7h-8.2v-13.5zm23.9 18c0 4 1.1 7.2 3.2 9.6 2.2 2.4 5 3.6 8.4 3.6 2.3 0 4.3-.6 6.1-1.7 1.8-1.1 3.1-2.6 4.1-4.6 1-2 1.4-4.2 1.4-6.7v-.3c0-4-1.1-7.2-3.2-9.6-2.2-2.4-5-3.6-8.5-3.6-2.3 0-4.3.5-6 1.6-1.8 1.1-3.1 2.6-4.1 4.6-1 2-1.5 4.3-1.5 6.8v.3zm6.4-7.2c1.3-1.7 3.1-2.6 5.2-2.6 2.2 0 4 .9 5.3 2.6 1.3 1.7 2 4 2 6.8 0 3.1-.7 5.6-2 7.3-1.3 1.7-3.1 2.6-5.3 2.6-2.2 0-4-.9-5.3-2.6-1.3-1.7-2-4-2-6.8.1-3.1.8-5.5 2.1-7.3m39-5.7h-3.5l-6 19.2-5-19.2h-4.4l7.4 25.6h3.5l6.1-19.4 6.2 19.4h3.5l7.5-25.6h-4.4l-4.9 19.6-6-19.6zm40.2 21.2-2.7-2.1c-.8 1-1.7 1.9-2.8 2.5-1.1.6-2.4.9-3.9.9-2.2 0-4-.8-5.4-2.3-1.4-1.6-2.1-3.6-2.2-6.1h17.4v-1.8c0-4.1-.9-7.2-2.8-9.4-1.8-2.2-4.4-3.3-7.8-3.3-2 0-3.9.6-5.7 1.7-1.7 1.1-3.1 2.7-4.1 4.7-1 2-1.5 4.3-1.5 6.8v.8c0 3.8 1.1 6.9 3.3 9.2 2.2 2.3 5 3.4 8.5 3.4 4.3-.1 7.5-1.7 9.7-5m-5.9-16.2c1.1 1.2 1.7 2.9 1.8 5.2v.3h-12.8c.3-2.3 1-4.1 2.2-5.4 1.2-1.3 2.7-1.9 4.5-1.9 1.8 0 3.2.6 4.3 1.8m23.6-5.1c-.4-.2-1.1-.3-1.9-.3-2.6 0-4.7 1.1-6.1 3.4l-.1-3h-4.3v25.6h4.4v-18.2c1-2.4 3-3.7 5.9-3.7.8 0 1.5.1 2.2.2v-4zm23.9 21.3-2.7-2.1c-.8 1-1.8 1.9-2.8 2.5-1.1.6-2.4.9-3.9.9-2.2 0-4-.8-5.4-2.3-1.4-1.6-2.1-3.6-2.2-6.1h17.4v-1.8c0-4.1-.9-7.2-2.8-9.4-1.8-2.2-4.4-3.3-7.8-3.3-2 0-3.9.6-5.7 1.7-1.7 1.1-3.1 2.7-4.1 4.7-1 2-1.5 4.3-1.5 6.8v.8c0 3.8 1.1 6.9 3.3 9.2 2.2 2.3 5 3.4 8.5 3.4 4.4-.1 7.6-1.7 9.7-5m-5.8-16.2c1.1 1.2 1.7 2.9 1.8 5.2v.3h-12.8c.3-2.3 1-4.1 2.2-5.4 1.2-1.3 2.7-1.9 4.5-1.9 1.7 0 3.2.6 4.3 1.8m10.2 8c0 3.9.9 7.1 2.8 9.5 1.9 2.4 4.3 3.6 7.3 3.6 3.1 0 5.6-1.1 7.3-3.2l.2 2.7h4v-36.4h-4.4v13.4c-1.8-2-4.1-3.1-7.1-3.1s-5.5 1.2-7.3 3.6c-1.9 2.4-2.8 5.6-2.8 9.5v.4zm6.1-7.2c1.2-1.7 2.9-2.5 5-2.5 2.7 0 4.7 1.2 6 3.6V178c-1.3 2.5-3.3 3.7-6.1 3.7-2.1 0-3.8-.8-5-2.5-1.2-1.6-1.8-3.9-1.8-6.8.1-3.2.7-5.7 1.9-7.3m47-20.4-9.3.4-.4 1.5c2.5 0 3.7.6 3.7 1.7 0 .3-.1.7-.2 1.3-.2.6-.3 1.2-.5 1.8l-5.9 18.9c-.7 2.1-1.2 4-1.6 5.5-.4 1.5-.5 2.7-.5 3.6 0 1.8.6 3.2 1.8 4.3 1.2 1.1 2.7 1.7 4.5 1.7 1.3 0 2.6-.3 4-.8 1.3-.5 2.6-1.3 3.8-2.3 1.2-.9 2.4-2.1 3.4-3.3 1.1-1.3 2-2.6 2.8-4.1.8-1.5 1.4-3 1.9-4.6.5-1.6.7-3.1.7-4.7 0-2.1-.5-3.8-1.6-5-1.1-1.2-2.6-1.8-4.6-1.8-1.6 0-3.1.4-4.5 1.2-1.4.8-2.6 2-3.5 3.5l-.1-.1 6.1-18.7zM532.4 179c0-1.2.2-2.5.5-3.8.3-1.3.8-2.6 1.3-4 .6-1.3 1.2-2.6 1.9-3.7.7-1.2 1.5-2.2 2.3-3.2.8-.9 1.6-1.7 2.4-2.2.8-.5 1.6-.8 2.3-.8.7 0 1.4.4 1.9 1.1.5.7.8 1.7.8 2.8 0 1.2-.2 2.5-.5 3.8-.3 1.3-.8 2.7-1.3 4-.6 1.3-1.2 2.6-1.9 3.8-.7 1.2-1.5 2.3-2.3 3.2-.8.9-1.6 1.6-2.5 2.2-.8.5-1.6.8-2.4.8-1.6 0-2.5-1.4-2.5-4m30.4 5.4c-.4 1-.9 2.1-1.8 3.3-.8 1.2-1.7 2.3-2.6 3.3-.9 1-1.9 1.9-2.8 2.5-.9.7-1.7 1-2.3 1-.5 0-.8-.2-1-.6-.2-.4-.4-.8-.6-1.3-.2-.5-.4-.9-.8-1.3-.3-.4-.8-.6-1.4-.6-.7 0-1.3.3-1.8.8-.4.5-.7 1.2-.7 2 0 1.1.4 2 1.2 2.7.8.7 1.9 1.1 3.2 1.1 1.8 0 3.8-.8 5.8-2.3 2.1-1.5 4.4-3.9 6.8-7.1 1.6-2.1 3.2-4.3 4.7-6.8s2.9-4.9 4-7.3c1.2-2.4 2.1-4.6 2.8-6.7.7-2.1 1.1-3.8 1.1-5.1 0-.9-.2-1.8-.6-2.5-.4-.7-1-1.1-1.8-1.1-.6 0-1.3.3-1.8.8-.6.6-.9 1.4-.9 2.6v1.1c0 .5.1 1 .1 1.5s.1 1 .1 1.5v1.2c0 1-.2 2-.5 3.1s-.7 2.2-1.3 3.3c-.5 1.1-1.1 2.1-1.7 3.1-.6 1-1.3 1.9-1.9 2.6h-.2l-1.6-7.8c-.5-2.2-.9-4.2-1.4-5.8-.5-1.7-.9-3.1-1.3-4.1-.5-1.2-.9-2.1-1.3-2.5-.4-.5-1-.7-1.6-.7-.7 0-1.4.3-2.1.8-.7.5-1.4 1.2-2 2.1-.6.9-1.2 2-1.7 3.3-.5 1.3-1 2.6-1.3 4.1l1.8.5c.5-2 1-3.5 1.5-4.4.5-.9 1.1-1.4 1.7-1.4.6 0 1.1.5 1.7 1.5.5 1 1.1 2.9 1.6 5.5l2.7 14.1zm40.4.5c3 0 5.7-.7 8.1-2.1 2.4-1.4 4.3-3.3 5.6-5.8 1.3-2.5 2-5.3 2-8.5v-1.6c0-3.2-.7-6.1-2-8.6s-3.2-4.5-5.6-5.8c-2.4-1.4-5.1-2-8.1-2h-10.6V185h10.6zm-.1-28.7c2.8 0 4.9.9 6.4 2.7 1.5 1.8 2.2 4.5 2.2 8v1.8c0 3.4-.8 6-2.2 7.8-1.5 1.8-3.6 2.7-6.4 2.7h-3.4v-23h3.4zm27.7 3.1h-6.9v25.6h6.9v-25.6zm-6.2-4.1c.7.7 1.6 1 2.8 1 1.1 0 2.1-.3 2.8-1 .7-.7 1-1.5 1-2.6 0-1-.3-1.9-1-2.5-.7-.7-1.6-1-2.8-1-1.2 0-2.1.3-2.8 1-.7.7-1 1.5-1 2.5-.1 1.1.3 2 1 2.6m20.6 29.7v-20.6h5.1v-5h-5.1v-2.1c0-2.4 1.3-3.6 3.9-3.6.8 0 1.5.1 2.1.2l.1-5.3c-1.4-.3-2.5-.5-3.5-.5-3 0-5.3.8-6.9 2.4-1.7 1.6-2.5 3.8-2.5 6.7v2.2h-3.8v5h3.8v20.6h6.8zm17.4 0v-20.6h5.1v-5h-5.1v-2.1c0-2.4 1.3-3.6 3.9-3.6.8 0 1.5.1 2.1.2l.1-5.3c-1.4-.3-2.5-.5-3.5-.5-3 0-5.3.8-6.9 2.4-1.7 1.6-2.5 3.8-2.5 6.7v2.2H652v5h3.8v20.6h6.8zm25.7-.7c1.8-.8 3.1-1.9 4.2-3.4l-3.4-3.8c-1.5 1.9-3.5 2.9-6.2 2.9-1.7 0-3.1-.5-4.2-1.5s-1.8-2.4-2-4H693v-2.8c0-4.1-1-7.2-3-9.4s-4.8-3.3-8.3-3.3c-2.3 0-4.4.5-6.2 1.7-1.8 1.1-3.2 2.7-4.2 4.7s-1.5 4.3-1.5 6.9v.7c0 3.8 1.2 6.9 3.5 9.2 2.4 2.3 5.4 3.5 9.2 3.5 2.1-.2 4-.6 5.8-1.4m-3.3-18.6c.8.8 1.2 2 1.2 3.5v.6h-9.5c.2-1.7.8-3 1.6-4 .8-.9 1.9-1.4 3.3-1.4 1.5.1 2.6.5 3.4 1.3m26.4-6.4c-.7-.2-1.4-.3-2.1-.3-2.4 0-4.3 1.2-5.7 3.5l-.2-3.1h-6.5v25.6h6.8v-16.8c.8-1.7 2.5-2.6 5.1-2.6.7 0 1.5.1 2.5.2l.1-6.5zm20.3 25c1.8-.8 3.1-1.9 4.2-3.4l-3.4-3.8c-1.5 1.9-3.5 2.9-6.2 2.9-1.7 0-3.1-.5-4.2-1.5s-1.8-2.4-2-4h16.3v-2.8c0-4.1-1-7.2-3-9.4s-4.8-3.3-8.3-3.3c-2.3 0-4.4.5-6.2 1.7-1.8 1.1-3.2 2.7-4.2 4.7s-1.5 4.3-1.5 6.9v.7c0 3.8 1.2 6.9 3.5 9.2 2.4 2.3 5.4 3.5 9.2 3.5 2.1-.2 4.1-.6 5.8-1.4m-3.2-18.6c.8.8 1.2 2 1.2 3.5v.6h-9.5c.2-1.7.8-3 1.6-4s1.9-1.4 3.3-1.4c1.5.1 2.6.5 3.4 1.3m11.7-6.3v25.6h6.8v-18.1c1-1.6 2.4-2.5 4.3-2.5 1.5 0 2.5.3 3.2 1 .6.7.9 1.7.9 3.2v16.4h6.8v-16.6c0-3.2-.7-5.6-2-7.1-1.3-1.6-3.3-2.4-6.1-2.4-3.1 0-5.5 1.1-7.4 3.4l-.2-3h-6.3zm34.3 18.9c-.8-1.2-1.2-3-1.2-5.7v-.7c0-2.6.4-4.5 1.2-5.7.8-1.2 2-1.7 3.6-1.7 1.3 0 2.3.4 3.1 1.3.8.8 1.2 1.9 1.2 3.3h6.4c0-3-1-5.5-2.9-7.3-1.9-1.8-4.5-2.7-7.7-2.7-3.7 0-6.5 1.2-8.6 3.5-2.1 2.4-3.2 5.5-3.2 9.4v.5c0 4.1 1.1 7.3 3.2 9.7 2.1 2.3 5 3.5 8.7 3.5 2 0 3.7-.4 5.4-1.2 1.6-.8 2.9-1.9 3.8-3.4.9-1.4 1.4-3 1.4-4.8h-6.4c0 1.2-.4 2.1-1.2 2.8-.8.7-1.8 1-3.1 1-1.7-.1-2.9-.7-3.7-1.8m35.9 6c1.8-.8 3.1-1.9 4.2-3.4l-3.4-3.8c-1.5 1.9-3.5 2.9-6.2 2.9-1.7 0-3.1-.5-4.2-1.5s-1.8-2.4-2-4h16.3v-2.8c0-4.1-1-7.2-3-9.4s-4.8-3.3-8.3-3.3c-2.3 0-4.4.5-6.2 1.7-1.8 1.1-3.2 2.7-4.2 4.7s-1.5 4.3-1.5 6.9v.7c0 3.8 1.2 6.9 3.5 9.2 2.4 2.3 5.4 3.5 9.2 3.5 2.1-.2 4.1-.6 5.8-1.4m-3.2-18.6c.8.8 1.2 2 1.2 3.5v.6h-9.5c.2-1.7.8-3 1.6-4 .8-.9 1.9-1.4 3.3-1.4 1.4.1 2.6.5 3.4 1.3M171.6 62.4c-.2-.6-.4-1.3-.7-1.9-.5-1.3-1.1-2.5-1.9-3.7-.6-.9-1.2-1.8-2-2.7-1-1.2-2-2.3-3.3-3.4-.9-.8-1.9-1.7-2.9-2.4-1-.8-2.1-1.6-3.3-2.3-.2-.1-.5-.3-.7-.5-.9-.5-2-.2-2.4.8-2.1 5.4-5 12.2-9.1 18.3-.5.8-.8 1.7-.8 2.7 0 10.8-9.8 20.3-24.9 26.1-2.5 1-5.2 1.8-8 2.6-3.9 1-8.1 1.8-12.4 2.4-2.4.3-4.9.5-7.5.6-1.8.1-3.5.1-5.3.1-15.1 0-28.9-3.2-39.2-8.3-.9-.4-1.9.2-1.9 1.2 0 1.3.1 2.5.3 3.8.4 3.2 2.9 5.8 6 6.4 9 1.8 18.7 2.9 29 3.2 1.9.1 3.9.1 5.8.1h2.4c4.5-.1 8.9-.3 13.1-.6 2.3-.2 4.5-.4 6.7-.7 36.6-4.3 63.6-19.2 63.6-36.8.1-1.8-.1-3.4-.6-5M27.3 71.4c.7-1.2 1.1-2.7 1.1-4.1 0-.5 0-1.1.1-1.6s.1-1.1.2-1.6c.2-1.3.6-2.6 1.2-3.9.2-.5.5-1 .7-1.5.1-.3.3-.5.4-.8l.9-1.5c.2-.2.3-.5.5-.7 1-1.4 2.3-2.8 3.7-4.2.2-.2.5-.4.7-.7 1.7-1.5 3.6-3 5.8-4.3l.9-.6c.6-.4 1.3-.7 1.9-1.1 2.4-1.3 5.1-2.5 7.9-3.6 2.5-1 5.2-1.8 8-2.6 3.9-1 8.1-1.8 12.4-2.4 2.4-.3 4.9-.5 7.5-.6 1.8-.1 3.5-.1 5.3-.1 14.7 0 28.1 3 38.3 7.9.9.4 2-.2 2-1.3 0-2.1-.2-4.4-.8-6.8-.3-1.2-1.2-2.1-2.4-2.3-9.6-2.1-20.2-3.3-31.4-3.7-1.9-.1-3.9-.1-5.8-.1H84c-4.5.1-8.9.3-13.1.6-2.3.2-4.5.4-6.7.7-5.2.6-10.2 1.4-15 2.5-1.3.3-2.5.5-3.7.8-1.8.4-3.6.9-5.3 1.4-1.2.3-2.3.7-3.4 1-2.8.9-5.5 1.8-8 2.9-1 .4-2 .8-3 1.3-1.5.6-2.9 1.3-4.2 2-.9.5-1.8.9-2.6 1.4-.4.2-.8.5-1.3.7L15.3 46c-1.2.8-2.3 1.5-3.3 2.3-1 .8-2 1.6-2.9 2.4C8 51.9 6.9 53 6 54.2c-.8.8-1.4 1.7-2 2.6-.8 1.2-1.4 2.4-1.9 3.7-.3.6-.5 1.3-.7 1.9C1 64 .7 65.6.7 67.3c0 8.5 6.2 16.3 16.8 22.7.6.4 1.4.1 1.7-.6 1.2-3.3 4.5-11.9 8.1-18"/><path class="st0" d="M97.3 23.1c.1 0 .3-.1.4-.1.6-.2 1.3-.4 1.9-.6.2-.1.4-.1.5-.2.5-.1 1-.3 1.5-.4.1 0 .3-.1.4-.1.6-.2 1.2-.3 1.8-.4.2 0 .3-.1.5-.1l1.5-.3c.2 0 .3 0 .5-.1.6-.1 1.2-.2 1.8-.2h.4c.5 0 1-.1 1.5-.1h4.3c.5 0 1.1.1 1.6.1h.3c.5.1 1 .1 1.4.2h.2c.5.1 1 .2 1.5.4.1 0 .2.1.3.1.5.1 1 .3 1.5.5h.1c.5.2.9.4 1.3.5.1 0 .2.1.3.1.4.2.9.4 1.3.7.1 0 .1.1.2.1.4.2.8.4 1.1.7.1 0 .1.1.2.1.4.3.8.6 1.1.9.1.1.2.1.2.2.4.3.7.6 1.1 1 1.3 1.3 2.4 2.8 3.2 4.4.7 1.4 1.3 2.9 1.7 4.5.7 2.7.9 5.6.8 8.7-.1 1.3-.2 2.6-.4 4 0 .1 0 .2-.1.3-.2 1.3-.5 2.6-.8 3.9 0 .1-.1.2-.1.3-2 7.7-6 16.1-11.8 24.2-1.1 1.5-2.2 3-3.4 4.5-.6.7-1.2 1.5-1.8 2.2-1.9 2.2-3.9 4.4-6 6.5-.4.4 0 1.1.5.9 1.7-.4 3.8-1 6-1.6 2.6-.8 5-2.3 6.8-4.3.5-.5.9-1.1 1.4-1.6 2.7-3.2 5.3-6.5 7.7-9.7.8-1.1 1.6-2.2 2.3-3.2 2-2.9 3.9-5.8 5.7-8.7.8-1.3 1.6-2.7 2.3-4 .9-1.6 1.8-3.3 2.6-4.9 1-2.1 2-4.1 2.8-6.1l1.2-3 .6-1.5c.1-.2.2-.5.2-.7.3-.8.5-1.5.8-2.2.2-.5.3-1 .5-1.5.3-.9.5-1.8.8-2.8.4-1.4.7-2.8.9-4.1.2-.9.3-1.8.4-2.6.1-.9.2-1.7.3-2.5.1-.8.1-1.7.1-2.5s0-1.6-.1-2.4c0-.4-.1-.8-.1-1.1-.1-.8-.2-1.5-.3-2.2-.8-4.3-2.5-8-5.3-10.7l-.7-.7c-.1-.1-.2-.1-.3-.2-.2-.1-.3-.3-.5-.4-.1-.1-.2-.2-.3-.2-.2-.1-.3-.2-.5-.4-.1-.1-.2-.2-.4-.2-.2-.1-.3-.2-.5-.3-.1-.1-.3-.2-.4-.2-.2-.1-.3-.2-.5-.3-.1-.1-.3-.1-.4-.2-.2-.1-.3-.2-.5-.3-.3-.1-.4-.2-.6-.2-.2-.1-.3-.2-.5-.2-.1-.1-.3-.1-.4-.2-.2-.1-.3-.1-.5-.2s-.3-.1-.5-.2-.4-.1-.5-.2c-.2 0-.3-.1-.5-.1-.2-.1-.4-.1-.6-.2-.2 0-.3-.1-.5-.1s-.4-.1-.6-.1c-.2 0-.3-.1-.5-.1s-.4-.1-.6-.1c-.2 0-.3-.1-.5-.1s-.4-.1-.6-.1c-.2 0-.4 0-.5-.1-.2 0-.4 0-.6-.1h-4.8c-.5 0-.9.1-1.4.1h-.4c-.5.1-1.1.1-1.7.2h-.3c-.5.1-1 .1-1.5.2-.1 0-.3 0-.4.1-.6.1-1.2.2-1.7.3-.1 0-.2 0-.3.1-.5.1-1 .2-1.6.4-.2 0-.3.1-.5.1-.6.1-1.2.3-1.8.5-.1 0-.1 0-.2.1-.6.2-1.1.3-1.7.5-.2 0-.3.1-.5.1-.6.2-1.3.4-1.9.6h-.1c-.6.2-1.2.4-1.8.7-.2.1-.3.1-.5.2-.6.2-1.3.5-1.9.7h-.1c-.7.3-1.3.5-2 .8-.2.1-.3.1-.5.2-.6.3-1.2.5-1.8.8-.1 0-.1.1-.2.1-.7.3-1.3.6-2 1-.2.1-.3.2-.5.3l-1.8.9c-.1 0-.2.1-.3.1-.7.4-1.4.7-2 1.1-.2.1-.3.2-.5.3-.6.3-1.2.7-1.8 1-.1.1-.2.1-.4.2l-2.1 1.2c-.2.1-.3.2-.5.3-.6.4-1.2.7-1.8 1.1-.1.1-.3.2-.4.3-.7.4-1.4.9-2.1 1.3-.2.1-.3.2-.5.3l-1.8 1.2c-.2.1-.3.2-.5.3l-2.1 1.5c-.1.1-.3.2-.4.3-.6.4-1.2.8-1.8 1.3-.2.1-.3.2-.5.4-.7.5-1.4 1-2.1 1.6h-.1c6.4-.1 14.6-.2 17.8-.3.6-.1.9-.2 1.2-.3M78.6 111c-1 0-1.9.2-2.8.5-.1 0-.2.1-.3.1-.6.2-1.3.4-1.9.6-.2 0-.3.1-.5.1-.5.1-1 .3-1.6.4-.1 0-.3.1-.4.1-.6.2-1.2.3-1.8.4-.1 0-.3.1-.4.1l-1.5.3c-.1 0-.3 0-.4.1-.6.1-1.2.2-1.8.2h-.3c-.5 0-1 .1-1.5.1h-4.2c-.5 0-1.1-.1-1.6-.2h-.3c-.5-.1-1-.1-1.4-.2h-.2c-.5-.1-1-.2-1.5-.4-.1 0-.2-.1-.3-.1-.5-.1-1-.3-1.4-.5h-.1c-.5-.2-.9-.3-1.3-.5-.1 0-.2-.1-.3-.1-.4-.2-.9-.4-1.3-.7-.1 0-.1-.1-.2-.1-.4-.2-.8-.5-1.1-.7-.1 0-.1-.1-.2-.1-.4-.3-.8-.6-1.1-.9-.1-.1-.2-.1-.2-.2-.4-.3-.7-.6-1.1-1-1.3-1.3-2.4-2.8-3.2-4.4-.7-1.4-1.3-2.9-1.7-4.5-.1-.4-.2-.8-.3-1.3-.2-1.2-.4-2.3-.5-3.6-.1-1.2-.1-2.5 0-3.8.1-1.3.2-2.6.4-4 0-.1 0-.2.1-.3.2-1.3.5-2.6.8-3.9 0-.1.1-.2.1-.3.3-1.3.7-2.6 1.2-4 .7-2.2 1.6-4.4 2.7-6.7.7-1.5 1.4-3 2.3-4.5.8-1.5 1.7-3 2.6-4.5.9-1.5 2-3 3-4.5 1.1-1.5 2.2-3 3.4-4.5 2.4-3 5-5.9 7.8-8.7.3-.3 0-.7-.3-.6-1 .2-2.1.5-3.2.8-5 1.4-9.4 4.2-12.7 8.2-5.5 6.6-10.3 13.3-14.3 19.9-.8 1.3-1.6 2.7-2.3 4 0 0-.1.1-.1.2-.6 1.1-1.1 2.1-1.7 3.2-.5 1-1.1 2.1-1.6 3.1s-1 2.1-1.4 3.1c-.5 1-.9 2-1.3 3s-.8 2-1.1 3c-.1.2-.2.5-.2.7-.4 1.3-.9 2.5-1.2 3.7-.8 2.8-1.5 5.6-1.9 8.2-.1.9-.2 1.7-.3 2.6-.1.8-.1 1.7-.2 2.5v2.4c0 .8.1 1.6.1 2.3.1 1.1.3 2.2.5 3.3.5 2.1 1.2 4 2.1 5.8.5.9 1 1.7 1.6 2.5.4.5.8 1 1.3 1.5l.7.7c.1.1.2.1.3.2.2.1.3.3.5.4.1.1.2.2.3.2.2.1.3.2.5.4.1.1.2.2.4.2.2.1.3.2.5.3.1.1.3.2.4.2.2.1.3.2.5.3.1.1.3.1.4.2.2.1.3.2.5.2.1.1.3.1.4.2.2.1.3.2.5.2.1.1.3.1.4.2.2.1.4.1.5.2.2.1.3.1.5.2s.4.1.5.2c.2 0 .3.1.5.1.2.1.4.1.6.1.2 0 .3.1.5.1s.4.1.6.1c.2 0 .3.1.5.1s.4.1.6.1c.2 0 .3.1.5.1s.4.1.6.1c.2 0 .4 0 .5.1.2 0 .4 0 .6.1h4.8c.5 0 .9-.1 1.4-.1h.4c.5 0 1.1-.1 1.7-.2h.3c.5-.1 1-.1 1.5-.2.1 0 .3 0 .4-.1.6-.1 1.2-.2 1.7-.3.1 0 .2 0 .3-.1.5-.1 1-.2 1.6-.4.2 0 .3-.1.5-.1.6-.1 1.2-.3 1.8-.5.1 0 .1 0 .2-.1.6-.2 1.1-.3 1.7-.5.2 0 .3-.1.5-.1.6-.2 1.3-.4 1.9-.6h.1c.6-.2 1.2-.4 1.8-.7.2-.1.3-.1.5-.2.6-.2 1.3-.5 1.9-.7h.1c.7-.3 1.3-.5 2-.8.2-.1.3-.1.5-.2.6-.3 1.2-.5 1.8-.8.1 0 .1-.1.2-.1.7-.3 1.3-.6 2-1 .2-.1.3-.2.5-.3l1.8-.9c.1 0 .2-.1.3-.1.7-.3 1.4-.7 2-1.1.2-.1.3-.2.5-.3.6-.3 1.2-.6 1.8-1 .1-.1.2-.1.4-.2l2.1-1.2c.2-.1.3-.2.5-.3.6-.4 1.2-.7 1.8-1.1.1-.1.3-.2.4-.3.7-.4 1.4-.9 2.1-1.3.2-.1.3-.2.5-.3l1.8-1.2c.2-.1.3-.2.5-.3.7-.5 1.4-1 2.1-1.4.2-.1.3-.2.5-.3.6-.4 1.2-.8 1.8-1.3.2-.1.3-.2.5-.4s.5-.4.9-.6c.4-.3.2-.9-.3-.9-5.5-.1-12-.1-14.9-.1"/><path class="st1" d="m202.1 96.4 5.5-8.4c.9-1.4 2.8-1.8 4.1-.8 8.5 5.8 17.6 8.8 25.6 8.8 8.4 0 13.3-3.6 13.3-9.2v-.3c0-6.6-9.1-8.9-19.1-12-12.6-3.6-26.7-8.7-26.7-25.1V49c0-16.2 13.4-26.1 30.4-26.1 9.7 0 20.3 3.1 28.9 8.2 1.4.8 1.9 2.6 1.1 4l-4.9 8.8c-.8 1.4-2.6 1.9-4 1.2-7.5-4.1-15.2-6.6-21.6-6.6-7.6 0-12 3.6-12 8.6v.3c0 6.1 9.2 8.7 19.3 12 12.5 3.9 26.5 9.5 26.5 24.9v.3c0 18-13.9 26.9-31.7 26.9-11.3 0-23.7-3.8-34-11.1-1.2-.9-1.5-2.7-.7-4M355.3 67.6v-.3c0-15.1-10.8-27.5-26.2-27.5-15.7 0-25.7 12.3-25.7 27.2v.3c0 14.9 10.8 27.5 26.1 27.5 15.8 0 25.8-12.5 25.8-27.2m-71.5 0v-.3c0-24.4 19.4-44.7 45.6-44.7 26.2 0 45.5 19.9 45.5 44.4v.3c0 24.3-19.4 44.5-45.8 44.5-26.1 0-45.3-19.9-45.3-44.2M397.8 24.4h13.6c1.6 0 3 1.3 3 3v10.3c5.5-8.1 13.4-15.1 26.7-15.1 19.3 0 30.4 12.9 30.4 32.9v51.4c0 1.6-1.3 3-3 3h-13.6c-1.6 0-3-1.3-3-3V61.3c0-13.3-6.6-20.9-18.3-20.9-11.3 0-19.3 7.9-19.3 21.2v45.3c0 1.6-1.3 3-3 3h-13.6c-1.6 0-3-1.3-3-3V27.4c.1-1.7 1.4-3 3.1-3M553.7 61.1c-1.3-12.6-8.7-22.5-21.7-22.5-12 0-20.4 9.2-22.2 22.5h43.9zm-63.2 6.4V65c0-23.4 18.9-42.6 42.3-42.3 26.8.3 40.4 21.5 40.4 46 0 .9 0 1.8-.1 2.7-.1 1.6-1.4 2.8-3 2.8h-60c2.1 13.9 12 21.7 24.6 21.7 8.7 0 15-2.9 21.2-8.4 1.1-1 2.8-1 3.9 0l7.2 6.4c1.3 1.1 1.3 3.1.2 4.3-7.9 8.4-18.5 13.7-32.9 13.7-24.7-.1-43.8-18.1-43.8-44.4M661.4 67.3V67c0-16.5-11.2-27.3-24.4-27.3-13.3 0-24.9 11-24.9 27.3v.3c0 16.5 11.7 27.4 24.9 27.4 13.4-.1 24.4-10.6 24.4-27.4m-65.5-42.9h13.6c1.6 0 3 1.3 3 3v11.3c6.3-8.9 15.2-16 29-16 20.2 0 39.8 16 39.8 44.3v.3c0 28.3-19.4 44.3-39.8 44.3-14.1 0-23-7.1-29-15.1v36.2c0 1.6-1.3 3-3 3h-13.6c-1.6 0-3-1.3-3-3V27.4c0-1.7 1.3-3 3-3M754.1 74.1c-5-1.9-12-3.4-19.6-3.4-12.3 0-19.6 5-19.6 13.3v.3c0 8.1 7.3 12.6 16.5 12.6 12.9 0 22.7-7.3 22.7-18v-4.8zm-.5 32.8v-7.5c-5.8 7-14.7 12.3-27.7 12.3-16.2 0-30.4-9.2-30.4-26.4V85c0-18.9 14.7-28 34.6-28 10.4 0 17 1.5 23.6 3.6V59c0-11.8-7.4-18.3-21-18.3-8.4 0-14.9 1.6-21.6 4.2-1.6.6-3.3-.2-3.9-1.8L703.8 33c-.5-1.5.2-3.1 1.7-3.7 8.5-3.6 17.3-6 30-6 25.2 0 37.6 13.3 37.6 36.1v47.7c0 1.6-1.3 3-3 3h-13.5c-1.6-.2-3-1.6-3-3.2M799.3 24.4H813c1.6 0 3 1.3 3 3v16.3c5-11.9 13.9-20.3 27.2-20.9 1.7-.1 3.1 1.3 3.1 3v14.9c0 1.6-1.2 2.9-2.8 3-16.9 1.1-27.5 12.2-27.5 33.7V107c0 1.6-1.3 3-3 3h-13.6c-1.6 0-3-1.3-3-3V27.4c-.1-1.7 1.3-3 2.9-3"/></svg>