<?xml version="1.0" encoding="utf-8"?>
<!-- Generator: Adobe Illustrator 21.0.0, SVG Export Plug-In . SVG Version: 6.00 Build 0)  -->
<svg version="1.1" id="Ebene_1" xmlns="http://www.w3.org/2000/svg" xmlns:xlink="http://www.w3.org/1999/xlink" x="0px" y="0px"
	 viewBox="0 0 183.7 113" style="enable-background:new 0 0 183.7 113;" xml:space="preserve">
<style type="text/css">
	.st0{fill:#F39B00;}
	.st1{fill:#1A171B;}
</style>
<title>obo_logo_neg_auf_hks_rgb</title>
<path class="st0" d="M6.4,80.5c-1.8,0-3.2,1.4-3.2,3.1c0,0,0,0.1,0,0.1v2.5c0,1.8,1.4,3.2,3.1,3.2c0,0,0.1,0,0.1,0h170.7
	c1.8,0,3.2-1.4,3.2-3.1c0,0,0-0.1,0-0.1v-2.5c0-1.8-1.4-3.2-3.1-3.2c0,0-0.1,0-0.1,0H6.4z"/>
<path class="st0" d="M60.4,44.6c0-16.1-14.5-28.1-30.2-28.1S0,28.5,0,44.7s14.6,28.1,30.1,28.2S60.4,60.7,60.4,44.6L60.4,44.6z
	 M50.2,44.7c0.2,11.1-8.6,20.2-19.7,20.4s-20.2-8.6-20.4-19.7S18.7,25.2,29.8,25c0.1,0,0.3,0,0.4,0C41.2,25,50.1,33.7,50.2,44.7z"/>
<path class="st0" d="M183.7,44.6c0-16.1-14.5-28.1-30.2-28.1s-30.2,12-30.2,28.1s14.6,28.1,30.1,28.2S183.7,60.7,183.7,44.6
	L183.7,44.6z M173.6,44.7c0.2,11.1-8.6,20.2-19.7,20.4s-20.2-8.6-20.4-19.7s8.6-20.2,19.7-20.4c0.1,0,0.3,0,0.4,0
	C164.5,25,173.5,33.7,173.6,44.7z"/>
<path class="st0" d="M118.4,32.1c0-9.3-6.4-12.4-15.9-12.4H70c-2.4,0-4.3,2-4.4,4.3v41.2c0,2.4,1.9,4.3,4.2,4.3c0.1,0,0.1,0,0.2,0
	h33.1c9,0,17.6-4.3,17.6-14.5c0-6.2-3.1-10.9-9.2-12.7C115.9,40.4,118.3,37,118.4,32.1L118.4,32.1z M108.4,34c0,4.2-2.9,5.9-6.7,5.9
	H76.2V28.3h24.6C104.7,28.3,108.4,29.3,108.4,34z M110.4,54.5c0,5.2-3.8,6.6-8.1,6.6h-26V47.4h26.2
	C107.2,47.4,110.4,49.4,110.4,54.5L110.4,54.5z"/>
<path class="st0" d="M6.6,0C4.8,0,3.4,1.4,3.4,3.1c0,0,0,0.1,0,0.1v2.5C3.3,7.5,4.7,9,6.5,9c0,0,0.1,0,0.1,0h170.5
	c1.8,0,3.2-1.4,3.2-3.1c0,0,0-0.1,0-0.1V3.2c0-1.8-1.3-3.2-3.1-3.2c0,0-0.1,0-0.1,0H6.6z"/>
<path class="st1" d="M3.2,113h12.4c2.2,0,3.9-0.6,3.9-3.4c0-1.9-0.6-2.8-2.3-3v-0.1c1.1-0.3,1.9-0.7,1.9-2.9c0-2.5-1.5-3.3-4.6-3.3
	H3.2V113L3.2,113z M7.1,108h7c0.8,0,1.4,0.2,1.4,1.1s-0.6,0.9-1.4,0.9h-7L7.1,108L7.1,108z M7.1,103.4H14c0.7,0,1.1,0.3,1.1,1
	s-0.4,1-1.1,1H7.1L7.1,103.4L7.1,103.4z M21.9,113.1H36V110H25.8v-2h9.5v-2.6h-9.5v-2h10v-3H21.8L21.9,113.1L21.9,113.1z
	 M37.1,103.5h5.5v9.6h3.9v-9.6h5.5v-3.2H37.1V103.5z M50.3,103.5h5.5v9.6h3.9v-9.6h5.4v-3.2H50.2L50.3,103.5L50.3,103.5z M66.7,113
	h14.1V110H70.5v-2H80v-2.6h-9.5v-2h10v-3H66.6L66.7,113L66.7,113z M87.1,103.5h6c1.2,0,1.8,0.2,1.8,1.3v0.4c0,0.9-0.4,1.3-1.4,1.3
	H87L87.1,103.5L87.1,103.5z M83.2,113h3.9v-3.3h6.1c1.2,0,1.6,0.4,1.6,1.8v1.5h3.9v-2.2c0-2.1-1-2.6-2.1-2.8l0,0
	c1.8-0.4,2.2-1.4,2.2-3.1v-0.8c0-2.3-0.8-3.8-3.8-3.8H83.1L83.2,113L83.2,113z M101.4,113h3.8v-9.1l0,0l5.1,9.1h2.9l5.1-9.1l0,0v9.1
	h3.8v-12.7h-6l-4.4,8.2l-4.4-8.2h-6L101.4,113L101.4,113z M122.9,113h4.4l1.1-2.2h7.9l1.2,2.2h4.3l-7-12.7h-5.1L122.9,113z
	 M132.3,103.2l2.5,4.8h-5L132.3,103.2L132.3,103.2z M142.9,113h3.9v-9.2l0,0l7.3,9.2h6v-12.7h-3.9v9.2l0,0l-7.3-9.2h-6V113z
	 M162.8,113h3.9v-9.2l0,0l7.3,9.2h6v-12.7h-3.9v9.2l0,0l-7.3-9.2h-6V113z"/>
</svg>
